<svg width="31" height="35" viewBox="0 0 31 35" fill="none" xmlns="http://www.w3.org/2000/svg">
<path d="M1.00479 28.5601L6.50476 28.0602L7.50476 34.5602L1.00479 28.5601Z" fill="#D9D9D9"/>
<path d="M1.00479 3.00354C1.00479 1.62283 2.12408 0.50354 3.50479 0.50354H27.5048C28.8855 0.50354 30.0048 1.62283 30.0048 3.00354V32.0035C30.0048 33.3843 28.8855 34.5035 27.5048 34.5035H15.5048H8.94821C7.87489 34.5035 7.00479 33.6334 7.00479 32.5601V30.5601C7.00479 29.4556 6.10936 28.5601 5.00479 28.5601H2.00479C1.45251 28.5601 1.00479 28.1124 1.00479 27.5601V26.2535V17.5035V3.00354Z" fill="#D9D9D9" stroke="black"/>
<path d="M5.50479 6.06012L25.5048 6.06012" stroke="black" stroke-linecap="round"/>
<path d="M5.50479 10.0601L25.5048 10.0601" stroke="black" stroke-linecap="round"/>
<path d="M5.50479 14.0601L25.5048 14.0601" stroke="black" stroke-linecap="round"/>
<path d="M5.50479 18.0601L25.5048 18.0601" stroke="black" stroke-linecap="round"/>
<path d="M5.50479 22.0601L25.5048 22.0601" stroke="black" stroke-linecap="round"/>
<path d="M5.50479 26.0601L25.5048 26.0601" stroke="black" stroke-linecap="round"/>
</svg>
